<svg width="136" height="32" viewBox="0 0 136 32" fill="none" xmlns="http://www.w3.org/2000/svg">
<path d="M126.426 25.5795C125.499 25.5795 124.676 25.4249 123.957 25.1155C123.244 24.7999 122.68 24.3264 122.263 23.6951C121.853 23.0574 121.648 22.2588 121.648 21.2992C121.648 20.4912 121.79 19.8093 122.074 19.2538C122.358 18.6982 122.749 18.2469 123.247 17.8996C123.746 17.5524 124.32 17.2904 124.969 17.1136C125.619 16.9306 126.313 16.8075 127.051 16.7443C127.877 16.6686 128.542 16.5897 129.047 16.5076C129.551 16.4192 129.917 16.2961 130.144 16.1383C130.378 15.9741 130.494 15.7437 130.494 15.447V15.3996C130.494 14.9135 130.327 14.5379 129.993 14.2727C129.659 14.0076 129.208 13.875 128.64 13.875C128.028 13.875 127.536 14.0076 127.164 14.2727C126.792 14.5379 126.556 14.9041 126.455 15.3712L122.188 15.2197C122.314 14.3359 122.639 13.5467 123.162 12.8523C123.692 12.1515 124.417 11.6023 125.338 11.2046C126.265 10.8005 127.379 10.5985 128.678 10.5985C129.605 10.5985 130.46 10.709 131.242 10.9299C132.024 11.1446 132.705 11.4603 133.285 11.8769C133.866 12.2873 134.313 12.7923 134.629 13.3921C134.951 13.9918 135.111 14.6768 135.111 15.447V25.3333H130.759V23.3068H130.646C130.387 23.7992 130.056 24.2159 129.652 24.5568C129.255 24.8977 128.785 25.1534 128.243 25.3239C127.707 25.4943 127.101 25.5795 126.426 25.5795ZM127.855 22.5492C128.353 22.5492 128.801 22.4482 129.198 22.2462C129.602 22.0442 129.924 21.7664 130.163 21.4129C130.403 21.053 130.523 20.6364 130.523 20.1629V18.7803C130.39 18.8498 130.23 18.9129 130.04 18.9697C129.857 19.0265 129.656 19.0802 129.435 19.1307C129.214 19.1812 128.987 19.2254 128.754 19.2633C128.52 19.3011 128.296 19.3359 128.082 19.3674C127.647 19.4369 127.275 19.5442 126.965 19.6894C126.663 19.8346 126.429 20.024 126.265 20.2576C126.108 20.4849 126.029 20.7563 126.029 21.072C126.029 21.5518 126.199 21.9179 126.54 22.1705C126.887 22.423 127.325 22.5492 127.855 22.5492Z" fill="#2B823F"/>
<path d="M111.88 25.5795C110.953 25.5795 110.13 25.4249 109.411 25.1155C108.698 24.7999 108.134 24.3264 107.718 23.6951C107.308 23.0574 107.103 22.2588 107.103 21.2992C107.103 20.4912 107.244 19.8093 107.528 19.2538C107.812 18.6982 108.203 18.2469 108.701 17.8996C109.2 17.5524 109.774 17.2904 110.423 17.1136C111.073 16.9306 111.767 16.8075 112.505 16.7443C113.331 16.6686 113.996 16.5897 114.501 16.5076C115.006 16.4192 115.371 16.2961 115.598 16.1383C115.832 15.9741 115.949 15.7437 115.949 15.447V15.3996C115.949 14.9135 115.781 14.5379 115.447 14.2727C115.113 14.0076 114.662 13.875 114.094 13.875C113.482 13.875 112.99 14.0076 112.618 14.2727C112.246 14.5379 112.01 14.9041 111.909 15.3712L107.642 15.2197C107.768 14.3359 108.093 13.5467 108.616 12.8523C109.146 12.1515 109.871 11.6023 110.792 11.2046C111.719 10.8005 112.833 10.5985 114.132 10.5985C115.059 10.5985 115.914 10.709 116.696 10.9299C117.478 11.1446 118.159 11.4603 118.74 11.8769C119.32 12.2873 119.768 12.7923 120.083 13.3921C120.405 13.9918 120.565 14.6768 120.565 15.447V25.3333H116.213V23.3068H116.1C115.841 23.7992 115.51 24.2159 115.107 24.5568C114.709 24.8977 114.239 25.1534 113.697 25.3239C113.161 25.4943 112.555 25.5795 111.88 25.5795ZM113.309 22.5492C113.807 22.5492 114.255 22.4482 114.652 22.2462C115.056 22.0442 115.378 21.7664 115.617 21.4129C115.857 21.053 115.977 20.6364 115.977 20.1629V18.7803C115.844 18.8498 115.684 18.9129 115.494 18.9697C115.311 19.0265 115.11 19.0802 114.889 19.1307C114.668 19.1812 114.441 19.2254 114.208 19.2633C113.974 19.3011 113.75 19.3359 113.536 19.3674C113.101 19.4369 112.729 19.5442 112.42 19.6894C112.117 19.8346 111.883 20.024 111.719 20.2576C111.562 20.4849 111.483 20.7563 111.483 21.072C111.483 21.5518 111.653 21.9179 111.994 22.1705C112.341 22.423 112.779 22.5492 113.309 22.5492Z" fill="#2B823F"/>
<path d="M97.1157 25.5417C96.0434 25.5417 95.0689 25.2639 94.1922 24.7084C93.3155 24.1528 92.6154 23.3195 92.0919 22.2084C91.5684 21.0972 91.3066 19.7178 91.3066 18.0701C91.3066 16.3593 91.5779 14.9514 92.1203 13.8466C92.6627 12.7418 93.3723 11.9243 94.249 11.394C95.132 10.8637 96.0813 10.5985 97.0967 10.5985C97.8599 10.5985 98.5127 10.7311 99.0552 10.9963C99.5976 11.2551 100.045 11.5897 100.399 12C100.752 12.4104 101.02 12.8365 101.203 13.2785H101.297V5.93945H105.924V25.3333H101.345V22.9754H101.203C101.007 23.4236 100.73 23.8435 100.37 24.2349C100.011 24.6263 99.5597 24.9419 99.0173 25.1818C98.4812 25.4217 97.8473 25.5417 97.1157 25.5417ZM98.724 21.9337C99.2854 21.9337 99.7647 21.7759 100.162 21.4603C100.559 21.1383 100.865 20.6869 101.08 20.1061C101.294 19.5253 101.401 18.8435 101.401 18.0606C101.401 17.2652 101.294 16.5802 101.08 16.0057C100.872 15.4312 100.566 14.9893 100.162 14.68C99.7647 14.3706 99.2854 14.216 98.724 14.216C98.1501 14.216 97.6644 14.3738 97.267 14.6894C96.8697 15.0051 96.5669 15.4502 96.3588 16.0247C96.157 16.5992 96.056 17.2778 96.056 18.0606C96.056 18.8435 96.1601 19.5253 96.3683 20.1061C96.5764 20.6869 96.876 21.1383 97.267 21.4603C97.6644 21.7759 98.1501 21.9337 98.724 21.9337Z" fill="#2B823F"/>
<path d="M76.2506 25.6079C74.7305 25.6079 73.4186 25.3081 72.3148 24.7083C71.2173 24.1023 70.3722 23.2405 69.7793 22.1231C69.1927 20.9994 68.8994 19.6641 68.8994 18.1174C68.8994 16.6149 69.1959 15.3018 69.7887 14.178C70.3816 13.048 71.2173 12.1705 72.2959 11.5455C73.3744 10.9142 74.6454 10.5985 76.1087 10.5985C77.1431 10.5985 78.0891 10.7595 78.9469 11.0815C79.8047 11.4034 80.5458 11.8801 81.1703 12.5114C81.7947 13.1427 82.2804 13.9224 82.6273 14.8504C82.9742 15.7721 83.1476 16.8296 83.1476 18.0227V19.178H70.5172V16.4886H78.8429C78.8366 15.9962 78.7199 15.5575 78.4928 15.1724C78.2658 14.7873 77.9535 14.4874 77.5562 14.2727C77.1651 14.0518 76.7142 13.9413 76.2033 13.9413C75.6861 13.9413 75.2225 14.0581 74.8125 14.2917C74.4025 14.519 74.0777 14.8315 73.838 15.2292C73.5984 15.6206 73.4722 16.0657 73.4596 16.5644V19.3011C73.4596 19.8946 73.5763 20.4154 73.8096 20.8636C74.043 21.3056 74.3742 21.6496 74.803 21.8958C75.2319 22.142 75.7428 22.2652 76.3357 22.2652C76.7457 22.2652 77.1178 22.2083 77.4521 22.0947C77.7864 21.9811 78.0734 21.8138 78.3131 21.5928C78.5527 21.3718 78.7325 21.1004 78.8523 20.7784L83.1003 20.9015C82.9237 21.8548 82.5358 22.685 81.9366 23.392C81.3437 24.0928 80.5648 24.6389 79.5997 25.0303C78.6347 25.4154 77.5183 25.6079 76.2506 25.6079Z" fill="#2B823F"/>
<path d="M61.2633 25.6079C59.7432 25.6079 58.4313 25.3081 57.3275 24.7083C56.23 24.1023 55.3849 23.2405 54.792 22.1231C54.2054 20.9994 53.9121 19.6641 53.9121 18.1174C53.9121 16.6149 54.2086 15.3018 54.8014 14.178C55.3943 13.048 56.23 12.1705 57.3086 11.5455C58.3871 10.9142 59.6581 10.5985 61.1214 10.5985C62.1558 10.5985 63.1018 10.7595 63.9596 11.0815C64.8174 11.4034 65.5585 11.8801 66.183 12.5114C66.8074 13.1427 67.293 13.9224 67.6399 14.8504C67.9868 15.7721 68.1603 16.8296 68.1603 18.0227V19.178H55.5299V16.4886H63.8556C63.8493 15.9962 63.7326 15.5575 63.5055 15.1724C63.2785 14.7873 62.9662 14.4874 62.5689 14.2727C62.1778 14.0518 61.7269 13.9413 61.216 13.9413C60.6988 13.9413 60.2352 14.0581 59.8252 14.2917C59.4152 14.519 59.0904 14.8315 58.8507 15.2292C58.611 15.6206 58.4849 16.0657 58.4723 16.5644V19.3011C58.4723 19.8946 58.589 20.4154 58.8223 20.8636C59.0557 21.3056 59.3868 21.6496 59.8157 21.8958C60.2446 22.142 60.7555 22.2652 61.3484 22.2652C61.7584 22.2652 62.1305 22.2083 62.4648 22.0947C62.7991 21.9811 63.0861 21.8138 63.3258 21.5928C63.5654 21.3718 63.7452 21.1004 63.865 20.7784L68.113 20.9015C67.9364 21.8548 67.5485 22.685 66.9493 23.392C66.3564 24.0928 65.5775 24.6389 64.6124 25.0303C63.6474 25.4154 62.531 25.6079 61.2633 25.6079Z" fill="#2B823F"/>
<path d="M42.9622 30.7879C42.4072 30.7879 41.8837 30.7437 41.3917 30.6553C40.8998 30.5733 40.4772 30.4628 40.124 30.3239L41.1457 26.9622C41.5999 27.1137 42.0098 27.2021 42.3757 27.2273C42.7478 27.2526 43.0663 27.1926 43.3312 27.0474C43.6024 26.9085 43.8106 26.6591 43.9556 26.2993L44.1354 25.8637L38.9697 10.788H43.8137L46.4912 21.1667H46.6426L49.3579 10.788H54.2302L48.7524 26.7254C48.4874 27.5209 48.1122 28.2216 47.6265 28.8277C47.1471 29.4401 46.5259 29.9199 45.7627 30.2671C45.0058 30.6143 44.0723 30.7879 42.9622 30.7879Z" fill="#2B823F"/>
<path d="M90.175 16.2222C90.9785 17.6956 90.7746 20.5972 89.2863 21.3325C87.6707 22.1085 84.846 21.3325 83.6893 19.5579C85.29 19.5547 86.2929 19.2618 87.5108 18.8888C88.8423 18.2214 89.7155 17.3222 90.175 16.2222Z" fill="#29813F"/>
<path d="M29.0457 15.169C29.0457 14.9225 29.0681 14.7432 28.9116 14.5415C28.6433 14.1829 28.3303 13.8468 28.0174 13.533C27.5255 13.0848 26.8772 12.7262 26.296 12.4348C24.9994 11.7849 23.6133 11.3366 22.2049 11.0229C19.254 10.3729 16.1689 10.2609 13.151 10.3953C11.9214 10.4626 10.6919 10.5298 9.48466 10.7539C9.01519 10.8436 8.54573 10.9332 8.09862 11.0901C7.6068 11.247 7.09262 11.4263 6.69022 11.74C6.55609 11.8297 6.44431 11.9418 6.33254 12.0538C6.24311 12.1659 6.15369 12.3003 6.08663 12.4348C6.01956 12.5469 5.93014 12.6589 5.88543 12.7934C5.84071 12.9055 5.81836 12.9951 5.81836 13.0848C5.81836 13.1968 5.86307 13.2865 5.86307 13.3761C5.86307 13.3985 6.55609 13.4658 6.62316 13.4882C6.89142 13.533 7.15969 13.5554 7.42795 13.5778C8.4116 13.6899 9.41759 13.7795 10.4012 13.8692C12.4579 14.0485 14.537 14.2502 16.6161 14.4295C18.6057 14.6088 20.573 14.7656 22.5626 14.9673C24.5746 15.169 26.5643 15.438 28.5986 15.3932C28.7104 15.3932 28.8445 15.3932 28.9563 15.3932C29.1128 15.3932 29.0457 15.3259 29.0457 15.169ZM11.1113 12.2223C10.776 12.424 10.6669 12.4445 10.3342 12.7486C9.77528 13.3313 8.79164 13.0175 8.05391 12.9503C7.94213 12.9503 7.83035 12.9279 7.69622 12.9055C7.56209 12.883 7.33853 12.9279 7.36089 12.7934C7.36089 12.6141 7.4056 12.4796 7.47267 12.3003C7.56209 12.0986 7.91977 12.009 8.12097 11.9193C8.38924 11.8073 8.65751 11.7176 8.94813 11.6504C9.99884 11.359 11.1166 11.1798 12.212 11.2022C12.2567 11.2022 12.3014 11.2022 12.3462 11.2022C11.9214 11.4935 11.5558 11.955 11.1113 12.2223Z" fill="#29813F"/>
<path d="M6.04286 4.52717C4.90273 4.45993 3.89673 3.36176 4.00851 2.21876C4.14264 0.986116 5.39455 0.112059 6.55704 0C6.10993 0.717175 5.3722 1.32229 5.14864 2.17394C4.90273 3.048 5.57339 3.85482 6.04286 4.52717Z" fill="#29813F"/>
<path d="M7.24902 9.20716C7.85262 7.72799 8.88097 6.47293 9.50693 4.99376C9.84226 4.20935 9.95404 3.42494 9.19395 2.88705C8.61271 2.46123 7.91969 2.23711 7.27138 1.99058C8.07618 1.65441 9.12688 1.632 9.93168 1.99058C10.893 2.41641 11.4295 3.40252 11.2954 4.43346C11.1612 5.57646 10.4682 6.6074 9.68577 7.43664C8.97039 8.15381 8.14324 8.78134 7.24902 9.20716Z" fill="#29813F"/>
<path d="M3.69464 14.945C1.57087 14.833 -0.664677 12.8383 0.184832 10.5747C0.900207 8.66974 3.22518 7.52674 5.10304 7.28021C4.05233 8.51286 2.5098 9.43174 1.74972 10.9109C0.944918 12.5246 2.66629 13.9365 3.69464 14.945Z" fill="#29813F"/>
<path d="M20.3944 10.0368L16.1468 9.61095C15.8785 9.58854 15.6773 9.34201 15.7221 9.07307L15.8785 7.45942C15.9009 7.19048 16.1468 6.98877 16.4151 7.0336L20.6626 7.45942C20.9309 7.48183 21.1321 7.72836 21.0874 7.9973L20.9309 9.61095C20.9085 9.87989 20.6626 10.0592 20.3944 10.0368Z" fill="#2B823F"/>
<path d="M31.9971 19.2029L31.9523 18.7323C31.8853 18.1495 31.3711 17.7237 30.7899 17.791L28.1743 18.0599C28.1519 17.6565 27.8389 17.3203 27.4365 17.3203H6.55651C6.15411 17.3203 5.81878 17.6565 5.81878 18.0823V18.4857L3.35967 18.2392C2.77843 18.172 2.26425 18.5978 2.19719 19.1805L2.15248 19.6511C2.08541 20.2338 2.51016 20.7493 3.09141 20.8165L5.81878 21.1079V21.5561V22.1388V28.4365C5.81878 30.4088 6.95891 32 8.3673 32H25.6257C27.0341 32 28.1743 30.4088 28.1743 28.4365V22.1388V21.5561V20.6597L31.0358 20.3683C31.617 20.3235 32.0418 19.7856 31.9971 19.2029ZM12.3913 30.2967H9.3733C9.35095 30.2967 9.32859 30.2967 9.30623 30.2967H9.26152C8.34495 30.2967 7.60722 29.3778 7.60722 28.2348V22.0492C7.60722 21.982 7.60722 21.9371 7.60722 21.8699V20.5476C7.60722 20.2338 7.87548 19.9649 8.18846 19.9649H9.26152H9.30623H9.3733H11.5194H12.3913V30.2967Z" fill="#2B823F"/>
</svg>
